<?xml version="1.0" standalone="no"?>
<!DOCTYPE svg PUBLIC "-//W3C//DTD SVG 20010904//EN"
 "http://www.w3.org/TR/2001/REC-SVG-20010904/DTD/svg10.dtd">
<svg version="1.0" xmlns="http://www.w3.org/2000/svg"
 width="70.000000pt" height="70.000000pt" viewBox="0 0 70.000000 70.000000"
 preserveAspectRatio="xMidYMid meet">
<metadata>
Created by potrace 1.14, written by Peter Selinger 2001-2017
</metadata>
<g transform="translate(0.000000,70.000000) scale(0.100000,-0.100000)"
fill="#000000" stroke="none">
<path d="M260 684 c-117 -31 -214 -130 -245 -249 -19 -74 -19 -96 0 -170 32
-125 130 -220 258 -251 116 -29 235 5 321 92 87 86 121 205 92 321 -31 128
-126 226 -251 258 -72 18 -103 18 -175 -1z m230 -30 c157 -71 239 -265 168
-400 -26 -51 -65 -81 -82 -64 -22 22 -56 8 -112 -46 -97 -93 -167 -113 -245
-73 -56 28 -84 90 -83 180 l1 66 -38 17 c-22 10 -44 26 -50 37 -5 11 -15 17
-21 13 -19 -12 2 68 35 129 81 154 264 214 427 141z"/>
<path d="M340 611 c-8 -5 -31 -11 -50 -15 -46 -8 -84 -64 -85 -123 0 -22 3
-39 8 -36 4 2 7 9 7 15 0 15 40 48 59 48 9 0 55 -5 101 -11 102 -12 124 -28
116 -79 -3 -19 -8 -61 -11 -92 -5 -66 -36 -123 -87 -161 -53 -40 -70 -41 -147
-8 l-71 30 6 -27 c4 -15 9 -30 11 -35 7 -12 73 -37 97 -37 40 1 104 38 128 74
13 20 28 36 34 36 16 0 67 76 61 92 -2 7 5 31 16 53 13 26 20 59 20 96 0 47
-5 63 -29 93 -16 20 -34 36 -41 36 -7 0 -17 9 -22 19 -17 31 -89 50 -121 32z"/>
<path d="M245 401 c-3 -5 8 -9 25 -9 21 1 27 4 18 9 -17 11 -35 11 -43 0z"/>
<path d="M340 362 c0 -4 21 -17 48 -30 l47 -23 -30 25 c-30 25 -65 40 -65 28z"/>
<path d="M211 227 c2 -1 13 -9 24 -17 19 -14 19 -14 6 3 -7 9 -18 17 -24 17
-6 0 -8 -1 -6 -3z"/>
<path d="M275 193 c10 -3 31 -12 45 -21 l25 -16 -19 22 c-11 13 -30 22 -45 21
-20 -1 -22 -2 -6 -6z"/>
</g>
</svg>
